<svg xmlns="http://www.w3.org/2000/svg" width="128" height="128" fill="none" viewBox="0 0 128 128" id="pdf">
  <path stroke="#000" stroke-linecap="round" stroke-width="5" d="M35 54.5L35 35C35 30.0294 39.0294 26 44 26H74.0785C75.9108 26 77.6701 26.7184 78.9786 28.0011L88.0509 36.8939L91.1244 40.1967C92.3299 41.4921 93 43.1959 93 44.9654V93C93 97.9706 88.9706 102 84 102H44C39.0294 102 35 97.9706 35 93L35 90"></path>
  <path stroke="#000" stroke-width="5" d="M76 27V41C76 42.6569 77.3431 44 79 44H93"></path>
  <path fill="#000" d="M33 79.5602V65.6002C33 65.4535 33.04 65.3468 33.12 65.2802 33.2 65.2002 33.3 65.1602 33.42 65.1602H39.84C40.52 65.1602 41.14 65.3002 41.7 65.5802 42.2733 65.8602 42.76 66.2268 43.16 66.6802 43.5733 67.1335 43.8933 67.6535 44.12 68.2402 44.3467 68.8135 44.46 69.4068 44.46 70.0202 44.46 70.6202 44.3467 71.2068 44.12 71.7802 43.9067 72.3535 43.6 72.8668 43.2 73.3202 42.8 73.7735 42.32 74.1402 41.76 74.4202 41.2 74.6868 40.58 74.8202 39.9 74.8202H36.84V79.5602C36.84 79.8535 36.6867 80.0002 36.38 80.0002H33.42C33.14 80.0002 33 79.8535 33 79.5602zM39 68.3202H36.84V71.6602H39C39.4933 71.6602 39.8733 71.4935 40.14 71.1602 40.4067 70.8135 40.54 70.4268 40.54 70.0002 40.54 69.8002 40.5 69.6002 40.42 69.4002 40.3533 69.2002 40.2533 69.0202 40.12 68.8602 40 68.7002 39.84 68.5735 39.64 68.4802 39.4533 68.3735 39.24 68.3202 39 68.3202zM46.6138 79.5602V65.6002C46.6138 65.3068 46.7538 65.1602 47.0338 65.1602H52.2337C53.1671 65.1602 54.0738 65.3535 54.9538 65.7402 55.8471 66.1268 56.6404 66.6535 57.3337 67.3202 58.0271 67.9868 58.5804 68.7735 58.9938 69.6802 59.4204 70.5868 59.6338 71.5535 59.6338 72.5802 59.6338 73.5535 59.4404 74.4868 59.0538 75.3802 58.6671 76.2735 58.1404 77.0668 57.4737 77.7602 56.8071 78.4402 56.0204 78.9868 55.1138 79.4002 54.2204 79.8002 53.2604 80.0002 52.2337 80.0002H47.0338C46.7538 80.0002 46.6138 79.8535 46.6138 79.5602zM55.7537 72.5802C55.7537 72.0468 55.6538 71.5468 55.4538 71.0802 55.2671 70.6002 55.0004 70.1868 54.6538 69.8402 54.3071 69.4935 53.8937 69.2202 53.4137 69.0202 52.9471 68.8068 52.4338 68.7002 51.8738 68.7002H50.4738V76.4602H51.8738C52.4338 76.4602 52.9471 76.3602 53.4137 76.1602 53.8937 75.9468 54.3071 75.6668 54.6538 75.3202 55.0004 74.9735 55.2671 74.5668 55.4538 74.1002 55.6538 73.6202 55.7537 73.1135 55.7537 72.5802zM61.9662 79.5602V65.6002C61.9662 65.3068 62.1062 65.1602 62.3862 65.1602H71.9263C72.2062 65.1602 72.3463 65.3068 72.3463 65.6002V68.1602C72.3463 68.4535 72.2062 68.6002 71.9263 68.6002H65.8263V71.6802H70.2863C70.5796 71.6802 70.7262 71.8335 70.7262 72.1402V74.5602C70.7262 74.8535 70.5796 75.0002 70.2863 75.0002H65.8263V79.5602C65.8263 79.8535 65.6796 80.0002 65.3862 80.0002H62.3862C62.1062 80.0002 61.9662 79.8535 61.9662 79.5602z"></path>
  <path stroke="#000" stroke-width=".5" d="M33 79.5602V65.6002C33 65.4535 33.04 65.3468 33.12 65.2802 33.2 65.2002 33.3 65.1602 33.42 65.1602H39.84C40.52 65.1602 41.14 65.3002 41.7 65.5802 42.2733 65.8602 42.76 66.2268 43.16 66.6802 43.5733 67.1335 43.8933 67.6535 44.12 68.2402 44.3467 68.8135 44.46 69.4068 44.46 70.0202 44.46 70.6202 44.3467 71.2068 44.12 71.7802 43.9067 72.3535 43.6 72.8668 43.2 73.3202 42.8 73.7735 42.32 74.1402 41.76 74.4202 41.2 74.6868 40.58 74.8202 39.9 74.8202H36.84V79.5602C36.84 79.8535 36.6867 80.0002 36.38 80.0002H33.42C33.14 80.0002 33 79.8535 33 79.5602zM39 68.3202H36.84V71.6602H39C39.4933 71.6602 39.8733 71.4935 40.14 71.1602 40.4067 70.8135 40.54 70.4268 40.54 70.0002 40.54 69.8002 40.5 69.6002 40.42 69.4002 40.3533 69.2002 40.2533 69.0202 40.12 68.8602 40 68.7002 39.84 68.5735 39.64 68.4802 39.4533 68.3735 39.24 68.3202 39 68.3202zM46.6138 79.5602V65.6002C46.6138 65.3068 46.7538 65.1602 47.0338 65.1602H52.2337C53.1671 65.1602 54.0738 65.3535 54.9538 65.7402 55.8471 66.1268 56.6404 66.6535 57.3337 67.3202 58.0271 67.9868 58.5804 68.7735 58.9938 69.6802 59.4204 70.5868 59.6338 71.5535 59.6338 72.5802 59.6338 73.5535 59.4404 74.4868 59.0538 75.3802 58.6671 76.2735 58.1404 77.0668 57.4737 77.7602 56.8071 78.4402 56.0204 78.9868 55.1138 79.4002 54.2204 79.8002 53.2604 80.0002 52.2337 80.0002H47.0338C46.7538 80.0002 46.6138 79.8535 46.6138 79.5602zM55.7537 72.5802C55.7537 72.0468 55.6538 71.5468 55.4538 71.0802 55.2671 70.6002 55.0004 70.1868 54.6538 69.8402 54.3071 69.4935 53.8937 69.2202 53.4137 69.0202 52.9471 68.8068 52.4338 68.7002 51.8738 68.7002H50.4738V76.4602H51.8738C52.4338 76.4602 52.9471 76.3602 53.4137 76.1602 53.8937 75.9468 54.3071 75.6668 54.6538 75.3202 55.0004 74.9735 55.2671 74.5668 55.4538 74.1002 55.6538 73.6202 55.7537 73.1135 55.7537 72.5802zM61.9662 79.5602V65.6002C61.9662 65.3068 62.1062 65.1602 62.3862 65.1602H71.9263C72.2062 65.1602 72.3463 65.3068 72.3463 65.6002V68.1602C72.3463 68.4535 72.2062 68.6002 71.9263 68.6002H65.8263V71.6802H70.2863C70.5796 71.6802 70.7262 71.8335 70.7262 72.1402V74.5602C70.7262 74.8535 70.5796 75.0002 70.2863 75.0002H65.8263V79.5602C65.8263 79.8535 65.6796 80.0002 65.3862 80.0002H62.3862C62.1062 80.0002 61.9662 79.8535 61.9662 79.5602z"></path>
</svg>
